<mxfile host="www.draw.io" modified="2020-04-05T00:12:58.729Z" agent="5.0 (Macintosh; Intel Mac OS X 10_15_3) AppleWebKit/537.36 (KHTML, like Gecko) Chrome/80.0.3987.149 Safari/537.36" etag="MANn9nria6SIXNnHhwTj" version="12.9.7" type="github">
  <diagram id="lrbF33a4c1_ZaoSh5XX0" name="Page-1">
    <mxGraphModel dx="1103" dy="714" grid="1" gridSize="10" guides="1" tooltips="1" connect="1" arrows="1" fold="1" page="1" pageScale="1" pageWidth="2400" pageHeight="2400" math="0" shadow="0">
      <root>
        <mxCell id="0" />
        <mxCell id="1" parent="0" />
      </root>
    </mxGraphModel>
  </diagram>
</mxfile>
